<svg xmlns="http://www.w3.org/2000/svg" xmlns:xlink="http://www.w3.org/1999/xlink" width="1080" zoomAndPan="magnify" viewBox="0 0 810 809.999993" height="1080" preserveAspectRatio="xMidYMid meet" version="1.0"><rect x="-81" width="972" fill="#ffffff" y="-80.999999" height="971.999992" fill-opacity="1"/><rect x="-81" width="972" fill="#ffffff" y="-80.999999" height="971.999992" fill-opacity="1"/><path fill="#ff751f" d="M 735.640625 314.878906 C 695.160156 122.941406 506.710938 0.101562 314.777344 40.582031 C 122.839844 81.0625 0 269.511719 40.480469 461.445312 C 59.675781 551.832031 111.496094 626.859375 181.117188 676.765625 L 174.140625 809.898438 L 318.789062 736.613281 C 364.503906 745.6875 412.835938 746.035156 461.519531 735.742188 C 653.28125 695.261719 776.121094 506.8125 735.640625 314.878906 Z M 735.640625 314.878906 " fill-opacity="1" fill-rule="nonzero"/><path fill="#ffffff" d="M 216.714844 357.453125 C 214.621094 357.976562 212.003906 358.324219 208.863281 358.324219 C 204.847656 358.324219 200.835938 357.976562 196.820312 357.101562 C 192.808594 356.230469 188.796875 355.007812 184.78125 353.265625 C 180.769531 351.519531 176.757812 349.25 172.742188 346.632812 L 158.785156 378.214844 C 162.273438 380.660156 166.285156 382.925781 170.996094 384.847656 C 175.710938 386.765625 180.945312 388.335938 186.875 389.558594 C 192.632812 390.605469 198.742188 391.128906 205.023438 391.128906 C 216.191406 391.128906 225.613281 389.207031 233.8125 385.195312 C 241.839844 381.183594 248.121094 375.597656 252.484375 368.621094 C 256.847656 361.464844 259.113281 353.265625 259.113281 343.84375 C 259.113281 338.257812 258.242188 333.546875 256.324219 329.707031 C 254.578125 325.871094 252.132812 322.730469 248.992188 320.285156 C 246.027344 317.84375 242.539062 315.75 239.046875 314.355469 C 235.382812 312.785156 231.894531 311.5625 228.230469 310.515625 C 224.566406 309.46875 221.25 308.59375 218.285156 307.546875 C 215.316406 306.675781 212.875 305.628906 210.957031 304.234375 C 209.035156 302.835938 208.164062 301.441406 208.164062 299.347656 C 208.164062 297.953125 208.6875 296.554688 209.910156 295.160156 C 211.128906 293.765625 212.875 292.71875 215.144531 292.019531 C 217.410156 291.148438 220.378906 290.796875 223.867188 290.796875 C 229.101562 290.796875 234.164062 291.671875 239.222656 293.242188 C 244.28125 294.8125 248.992188 297.253906 253.179688 300.394531 L 266.09375 269.160156 C 261.035156 265.671875 255.101562 262.878906 248.296875 261.136719 C 241.492188 259.214844 233.988281 258.34375 226.136719 258.34375 C 214.96875 258.34375 205.371094 260.261719 197.171875 264.277344 C 189.144531 268.289062 182.863281 273.699219 178.5 280.851562 C 174.140625 288.007812 172.042969 296.382812 172.042969 306.152344 C 172.042969 311.738281 172.917969 316.449219 174.835938 320.285156 C 176.582031 324.125 179.023438 327.441406 182.164062 329.882812 C 185.132812 332.5 188.445312 334.59375 192.109375 336.164062 C 195.773438 337.734375 199.4375 339.132812 203.105469 340.179688 C 206.769531 341.226562 210.082031 342.273438 213.050781 343.144531 C 216.015625 344.191406 218.457031 345.238281 220.378906 346.460938 C 222.121094 347.679688 223.167969 349.25 223.167969 351.171875 C 223.167969 352.566406 222.644531 353.960938 221.597656 355.007812 C 220.378906 356.054688 218.808594 356.929688 216.714844 357.453125 Z M 216.714844 357.453125 " fill-opacity="1" fill-rule="nonzero"/><path fill="#ffffff" d="M 299.070312 388.160156 L 306.921875 341.398438 L 340.078125 341.398438 L 332.222656 388.160156 L 368.34375 388.160156 L 389.632812 261.136719 L 353.6875 261.136719 L 346.007812 306.152344 L 312.855469 306.152344 L 320.359375 261.136719 L 284.414062 261.136719 L 262.953125 388.160156 Z M 299.070312 388.160156 " fill-opacity="1" fill-rule="nonzero"/><path fill="#ffffff" d="M 472.863281 385.542969 C 481.0625 381.878906 488.214844 376.644531 494.148438 369.839844 C 500.082031 363.035156 504.792969 355.007812 508.109375 345.761719 C 511.421875 336.511719 512.992188 326.21875 512.992188 315.050781 C 512.992188 303.882812 510.726562 294.113281 506.363281 285.5625 C 502 277.011719 495.71875 270.382812 487.519531 265.496094 C 479.492188 260.613281 469.894531 258.167969 458.726562 258.167969 C 448.957031 258.167969 439.882812 260.089844 431.683594 263.753906 C 423.480469 267.417969 416.328125 272.652344 410.394531 279.457031 C 404.460938 286.261719 399.75 294.289062 396.4375 303.535156 C 393.121094 312.785156 391.550781 323.078125 391.550781 334.246094 C 391.550781 345.414062 393.820312 355.183594 398.179688 363.734375 C 402.542969 372.285156 408.824219 378.914062 417.027344 383.800781 C 425.226562 388.683594 434.648438 391.128906 445.816406 391.128906 C 455.585938 391.128906 464.660156 389.207031 472.863281 385.542969 Z M 430.460938 344.714844 C 428.714844 341.050781 428.019531 336.6875 428.019531 331.800781 C 428.019531 326.566406 428.542969 321.683594 429.761719 316.972656 C 430.984375 312.261719 432.730469 308.246094 435.171875 304.582031 C 437.613281 300.917969 440.582031 298.125 444.070312 296.03125 C 447.5625 293.9375 451.398438 292.890625 455.761719 292.890625 C 460.125 292.890625 463.789062 293.9375 466.929688 296.03125 C 470.070312 298.125 472.339844 300.917969 474.082031 304.582031 C 475.828125 308.246094 476.527344 312.609375 476.527344 317.496094 C 476.527344 322.730469 475.828125 327.613281 474.78125 332.324219 C 473.558594 337.035156 471.816406 341.050781 469.371094 344.714844 C 466.929688 348.378906 463.960938 351.171875 460.648438 353.265625 C 457.15625 355.359375 453.320312 356.40625 448.78125 356.40625 C 444.421875 356.40625 440.753906 355.359375 437.613281 353.265625 C 434.472656 351.34375 432.207031 348.378906 430.460938 344.714844 Z M 430.460938 344.714844 " fill-opacity="1" fill-rule="nonzero"/><path fill="#ffffff" d="M 617.164062 272.300781 C 609.3125 264.972656 598.316406 261.308594 584.011719 261.308594 L 536.550781 261.308594 L 515.261719 388.335938 L 551.03125 388.335938 L 556.265625 357.101562 L 574.585938 357.101562 C 585.582031 357.101562 595.175781 354.835938 603.203125 350.472656 C 611.230469 345.9375 617.511719 339.65625 622.046875 331.628906 C 626.410156 323.601562 628.679688 314.179688 628.679688 303.535156 C 628.679688 289.925781 624.839844 279.628906 617.164062 272.300781 Z M 588.199219 319.414062 C 585.40625 322.378906 581.566406 323.777344 576.683594 323.777344 L 561.851562 323.777344 L 566.910156 293.9375 L 578.949219 293.9375 C 583.136719 293.9375 586.453125 294.984375 588.722656 296.90625 C 591.164062 298.824219 592.386719 302.140625 592.386719 306.851562 C 592.210938 312.433594 590.988281 316.621094 588.199219 319.414062 Z M 588.199219 319.414062 " fill-opacity="1" fill-rule="nonzero"/><path fill="#ffffff" d="M 244.457031 477.675781 L 213.746094 418.523438 L 184.085938 418.523438 L 162.796875 545.550781 L 197.867188 545.550781 L 207.816406 486.398438 L 238.523438 545.550781 L 268.011719 545.550781 L 289.476562 418.523438 L 254.226562 418.523438 Z M 244.457031 477.675781 " fill-opacity="1" fill-rule="nonzero"/><path fill="#ffffff" d="M 387.363281 422.886719 C 379.335938 418 369.738281 415.554688 358.570312 415.554688 C 348.800781 415.554688 339.726562 417.476562 331.527344 421.140625 C 323.324219 424.804688 316.171875 430.039062 310.238281 436.84375 C 304.304688 443.648438 299.59375 451.675781 296.28125 460.921875 C 292.964844 470.171875 291.394531 480.464844 291.394531 491.632812 C 291.394531 502.800781 293.664062 512.570312 298.023438 521.121094 C 302.386719 529.671875 308.667969 536.300781 316.871094 541.1875 C 324.894531 546.074219 334.492188 548.515625 345.660156 548.515625 C 355.429688 548.515625 364.503906 546.597656 372.707031 542.933594 C 380.90625 539.269531 388.0625 534.035156 393.992188 527.230469 C 399.925781 520.421875 404.636719 512.398438 407.953125 503.148438 C 411.265625 493.902344 412.835938 483.605469 412.835938 472.4375 C 412.835938 461.273438 410.570312 451.5 406.207031 442.949219 C 401.84375 434.402344 395.5625 427.769531 387.363281 422.886719 Z M 374.625 489.714844 C 373.402344 494.425781 371.660156 498.4375 369.214844 502.101562 C 366.773438 505.765625 363.808594 508.558594 360.492188 510.652344 C 357 512.746094 353.164062 513.792969 348.625 513.792969 C 344.265625 513.792969 340.601562 512.746094 337.460938 510.652344 C 334.316406 508.558594 332.050781 505.765625 330.304688 501.929688 C 328.558594 498.261719 327.863281 493.902344 327.863281 489.015625 C 327.863281 483.78125 328.386719 478.894531 329.605469 474.183594 C 330.828125 469.472656 332.574219 465.460938 335.015625 461.796875 C 337.460938 458.132812 340.425781 455.339844 343.914062 453.246094 C 347.40625 451.152344 351.242188 450.105469 355.605469 450.105469 C 359.96875 450.105469 363.632812 451.152344 366.773438 453.246094 C 369.914062 455.339844 372.183594 458.132812 373.925781 461.796875 C 375.671875 465.460938 376.371094 469.820312 376.371094 474.707031 C 376.542969 480.117188 375.847656 485.175781 374.625 489.714844 Z M 374.625 489.714844 " fill-opacity="1" fill-rule="nonzero"/><path fill="#ffffff" d="M 538.644531 492.15625 L 532.535156 418.523438 L 499.382812 418.523438 L 467.625 490.933594 L 460.820312 418.523438 L 425.226562 418.523438 L 437.964844 545.550781 L 476.699219 545.550781 L 505.839844 478.546875 L 511.945312 545.550781 L 550.683594 545.550781 L 606.171875 418.523438 L 570.75 418.523438 Z M 538.644531 492.15625 " fill-opacity="1" fill-rule="nonzero"/></svg>